<svg width="35" height="42" viewBox="0 0 35 42" fill="none" xmlns="http://www.w3.org/2000/svg">
<path fill-rule="evenodd" clip-rule="evenodd" d="M17.3635 41C17.3635 41 33.7271 30.0909 33.7271 17.3636C33.7271 13.0237 32.0031 8.86158 28.9343 5.7928C25.8655 2.72402 21.7034 1 17.3635 1C13.0235 1 8.86139 2.72402 5.79261 5.7928C2.72384 8.86158 0.999817 13.0237 0.999817 17.3636C0.999817 30.0909 17.3635 41 17.3635 41ZM22.8191 17.3636C22.8191 20.3761 20.377 22.8181 17.3645 22.8181C14.3521 22.8181 11.91 20.3761 11.91 17.3636C11.91 14.3511 14.3521 11.9091 17.3645 11.9091C20.377 11.9091 22.8191 14.3511 22.8191 17.3636Z" fill="#232323"/>
<path d="M17.3635 41L17.0861 41.416C17.2541 41.528 17.4729 41.528 17.6408 41.416L17.3635 41ZM28.9343 5.7928L29.2878 5.43924L28.9343 5.7928ZM5.79261 5.7928L5.43906 5.43924L5.79261 5.7928ZM33.2271 17.3636C33.2271 23.5263 29.2533 29.3135 25.1823 33.6107C23.157 35.7485 21.13 37.4941 19.6088 38.7055C18.8486 39.3108 18.2157 39.7819 17.7738 40.1011C17.5529 40.2606 17.3798 40.3821 17.2625 40.4633C17.2039 40.504 17.1592 40.5345 17.1295 40.5547C17.1146 40.5648 17.1035 40.5723 17.0962 40.5772C17.0926 40.5797 17.0899 40.5814 17.0882 40.5826C17.0874 40.5831 17.0868 40.5835 17.0864 40.5838C17.0862 40.5839 17.0862 40.5839 17.0861 40.584C17.0861 40.584 17.0861 40.584 17.3635 41C17.6408 41.416 17.641 41.4159 17.6412 41.4158C17.6414 41.4156 17.6417 41.4154 17.642 41.4152C17.6426 41.4148 17.6435 41.4142 17.6447 41.4134C17.6469 41.4119 17.6502 41.4097 17.6544 41.4069C17.6629 41.4012 17.6752 41.3929 17.6913 41.3819C17.7235 41.3601 17.7707 41.3278 17.8319 41.2854C17.9543 41.2006 18.1328 41.0753 18.3593 40.9117C18.8123 40.5846 19.4579 40.104 20.2317 39.4877C21.7787 38.2559 23.8426 36.4788 25.9082 34.2984C30.019 29.9592 34.2271 23.9282 34.2271 17.3636H33.2271ZM28.5807 6.14635C31.5557 9.12136 33.2271 13.1563 33.2271 17.3636H34.2271C34.2271 12.8911 32.4504 8.60179 29.2878 5.43924L28.5807 6.14635ZM17.3635 1.5C21.5707 1.5 25.6057 3.17134 28.5807 6.14635L29.2878 5.43924C26.1253 2.2767 21.836 0.5 17.3635 0.5V1.5ZM6.14617 6.14635C9.12118 3.17134 13.1562 1.5 17.3635 1.5V0.5C12.8909 0.5 8.60161 2.2767 5.43906 5.43924L6.14617 6.14635ZM1.49982 17.3636C1.49982 13.1563 3.17116 9.12136 6.14617 6.14635L5.43906 5.43924C2.27652 8.60179 0.499817 12.8911 0.499817 17.3636H1.49982ZM17.3635 41C17.6408 40.584 17.6409 40.584 17.6408 40.584C17.6407 40.5839 17.6407 40.5839 17.6405 40.5838C17.6401 40.5835 17.6395 40.5831 17.6387 40.5826C17.637 40.5814 17.6343 40.5797 17.6307 40.5772C17.6234 40.5723 17.6123 40.5648 17.5974 40.5547C17.5677 40.5345 17.523 40.504 17.4644 40.4633C17.3471 40.3821 17.174 40.2606 16.9531 40.1011C16.5112 39.7819 15.8783 39.3108 15.1181 38.7055C13.5969 37.4941 11.5699 35.7485 9.54461 33.6107C5.47359 29.3135 1.49982 23.5263 1.49982 17.3636H0.499817C0.499817 23.9282 4.70786 29.9592 8.81866 34.2984C10.8843 36.4788 12.9482 38.2559 14.4952 39.4877C15.269 40.104 15.9146 40.5846 16.3676 40.9117C16.5941 41.0753 16.7726 41.2006 16.895 41.2854C16.9562 41.3278 17.0034 41.3601 17.0356 41.3819C17.0517 41.3929 17.064 41.4012 17.0725 41.4069C17.0767 41.4097 17.08 41.4119 17.0822 41.4134C17.0834 41.4142 17.0843 41.4148 17.0849 41.4152C17.0852 41.4154 17.0855 41.4156 17.0857 41.4158C17.0859 41.4159 17.0861 41.416 17.3635 41ZM17.3645 23.3181C20.6531 23.3181 23.3191 20.6522 23.3191 17.3636H22.3191C22.3191 20.0999 20.1008 22.3181 17.3645 22.3181V23.3181ZM11.41 17.3636C11.41 20.6522 14.0759 23.3181 17.3645 23.3181V22.3181C14.6282 22.3181 12.41 20.0999 12.41 17.3636H11.41ZM17.3645 11.4091C14.0759 11.4091 11.41 14.075 11.41 17.3636H12.41C12.41 14.6273 14.6282 12.4091 17.3645 12.4091V11.4091ZM23.3191 17.3636C23.3191 14.075 20.6531 11.4091 17.3645 11.4091V12.4091C20.1008 12.4091 22.3191 14.6273 22.3191 17.3636H23.3191Z" fill="white"/>
</svg>
