<svg aria-hidden="true" style="position: absolute; width: 0; height: 0; overflow: hidden;" version="1.1" xmlns="http://www.w3.org/2000/svg" xmlns:xlink="http://www.w3.org/1999/xlink">
<defs>
<symbol id="icon-instagram" viewBox="0 0 34 32">
<path fill="#fff" style="fill: var(--color1, #fff)" d="M25.050 0h-16.689c-4.611 0-8.361 3.752-8.361 8.364v15.272c0 4.612 3.751 8.364 8.361 8.364h16.689c4.611 0 8.361-3.752 8.361-8.364v-15.272c0-4.612-3.751-8.364-8.361-8.364zM2.95 8.364c0-2.985 2.428-5.413 5.412-5.413h16.689c2.984 0 5.412 2.429 5.412 5.413v15.272c0 2.984-2.428 5.413-5.412 5.413h-16.689c-2.984 0-5.412-2.429-5.412-5.413v-15.272z"></path>
<path fill="#fff" style="fill: var(--color1, #fff)" d="M16.707 23.778c4.287 0 7.778-3.489 7.778-7.78s-3.488-7.78-7.778-7.78c-4.289 0-7.778 3.489-7.778 7.78s3.488 7.78 7.778 7.78zM16.707 11.171c2.662 0 4.828 2.166 4.828 4.829s-2.165 4.829-4.828 4.829c-2.662 0-4.828-2.166-4.828-4.829s2.165-4.829 4.828-4.829z"></path>
<path fill="#fff" style="fill: var(--color1, #fff)" d="M25.201 9.475c1.155 0 2.096-0.939 2.096-2.096s-0.939-2.096-2.096-2.096c-1.156 0-2.096 0.939-2.096 2.096s0.939 2.096 2.096 2.096z"></path>
</symbol>
<symbol id="icon-tiktok" viewBox="0 0 28 32">
<path fill="#fff" style="fill: var(--color1, #fff)" d="M27.717 7.748v5.515c-0.964-0.094-2.216-0.313-3.601-0.821-1.809-0.663-3.155-1.57-4.037-2.272v11.148l-0.022-0.035c0.014 0.221 0.022 0.446 0.022 0.673 0 5.536-4.503 10.042-10.040 10.042s-10.040-4.507-10.040-10.042c0-5.536 4.503-10.045 10.040-10.045 0.542 0 1.074 0.043 1.594 0.127v5.436c-0.499-0.178-1.035-0.274-1.594-0.274-2.621 0-4.755 2.133-4.755 4.756s2.134 4.756 4.755 4.756 4.755-2.135 4.755-4.756c0-0.098-0.002-0.197-0.008-0.295v-21.663h5.51c0.021 0.467 0.039 0.937 0.059 1.404 0.037 0.919 0.364 1.801 0.935 2.523 0.669 0.849 1.657 1.836 3.044 2.624 1.299 0.735 2.519 1.052 3.382 1.201v-0.004z"></path>
</symbol>
<symbol id="icon-youtube" viewBox="0 0 44 32">
<path fill="none" stroke="#fff" style="stroke: var(--color1, #fff)" stroke-linejoin="miter" stroke-linecap="butt" stroke-miterlimit="4" stroke-width="2.6" d="M41.329 9.506c-0.244-2.381-0.768-5.013-2.698-6.396-1.494-1.073-3.459-1.112-5.293-1.11-3.877 0-7.756 0.007-11.632 0.009-3.729 0.004-7.457 0.007-11.186 0.011-1.558 0-3.072-0.121-4.518 0.562-1.242 0.586-2.215 1.7-2.8 2.94-0.811 1.725-0.981 3.678-1.079 5.585-0.181 3.473-0.161 6.955 0.054 10.426 0.159 2.533 0.561 5.332 2.495 6.947 1.714 1.429 4.133 1.5 6.357 1.502 7.057 0.007 14.117 0.013 21.176 0.018 0.905 0.002 1.849-0.015 2.771-0.117 1.814-0.198 3.544-0.725 4.71-2.086 1.177-1.372 1.479-3.282 1.658-5.090 0.435-4.387 0.431-8.816-0.015-13.202zM17.625 22.15v-12.301l10.521 6.149-10.521 6.152z"></path>
</symbol>
<symbol id="icon-arrow" viewBox="0 0 32 32">
 <path d="M1 13L13 1" stroke="#232323" stroke-width="0.8" stroke-linecap="round" stroke-linejoin="round" />
  <path d="M1 1H13V13" stroke="#232323" stroke-width="0.8" stroke-linecap="round" stroke-linejoin="round" />
</symbol>
<symbol id="icon-mark" viewBox="0 0 27 32">
<path stroke-linejoin="round" stroke-linecap="round" stroke-miterlimit="4" stroke-width="1.3333" d="M25.333 13.333c0 9.333-12 17.333-12 17.333s-12-8-12-17.333c0-3.183 1.264-6.235 3.515-8.485s5.303-3.515 8.485-3.515c3.183 0 6.235 1.264 8.485 3.515s3.515 5.303 3.515 8.485z"></path>
<path stroke-linejoin="round" stroke-linecap="round" stroke-miterlimit="4" stroke-width="1.3333" d="M13.333 17.333c2.209 0 4-1.791 4-4s-1.791-4-4-4c-2.209 0-4 1.791-4 4s1.791 4 4 4z"></path>
</symbol>
<symbol id="icon-chair" viewBox="0 0 35 32">
<path stroke-linejoin="round" stroke-linecap="round" stroke-miterlimit="4" stroke-width="1.6" d="M6.441 12.8v-6.4c0-1.273 0.506-2.494 1.406-3.394s2.121-1.406 3.394-1.406h12.8c1.273 0 2.494 0.506 3.394 1.406s1.406 2.121 1.406 3.394v6.4M24.041 20.8v-3.2c0-0.949 0.281-1.877 0.809-2.667s1.277-1.405 2.154-1.768c0.877-0.363 1.842-0.458 2.773-0.273s1.786 0.642 2.458 1.314c0.671 0.671 1.128 1.527 1.314 2.458s0.090 1.896-0.273 2.773c-0.363 0.877-0.979 1.627-1.768 2.154s-1.717 0.809-2.667 0.809v4.8h-22.4v-4.8c-0.949 0-1.877-0.281-2.667-0.809s-1.405-1.277-1.768-2.154c-0.363-0.877-0.458-1.842-0.273-2.773s0.642-1.786 1.314-2.458 1.527-1.128 2.458-1.314c0.931-0.185 1.896-0.090 2.773 0.273s1.627 0.979 2.154 1.768c0.527 0.789 0.809 1.717 0.809 2.667v3.2M11.241 16h12.8M9.641 27.2v3.2M25.641 27.2v3.2"></path>
</symbol>
<symbol id="icon-roller" viewBox="0 0 30 32">
<path stroke-linejoin="round" stroke-linecap="round" stroke-miterlimit="4" stroke-width="1.6" d="M24 6.4h1.6c0.849 0 1.663 0.337 2.263 0.937s0.937 1.414 0.937 2.263c0 2.122-0.843 4.157-2.343 5.657s-3.535 2.343-5.657 2.343h-8v3.2M1.6 4.8c0-0.849 0.337-1.663 0.937-2.263s1.414-0.937 2.263-0.937h16c0.849 0 1.663 0.337 2.263 0.937s0.937 1.414 0.937 2.263v3.2c0 0.849-0.337 1.663-0.937 2.263s-1.414 0.937-2.263 0.937h-16c-0.849 0-1.663-0.337-2.263-0.937s-0.937-1.414-0.937-2.263v-3.2zM9.6 22.4c0-0.424 0.169-0.831 0.469-1.131s0.707-0.469 1.131-0.469h3.2c0.424 0 0.831 0.169 1.131 0.469s0.469 0.707 0.469 1.131v6.4c0 0.424-0.169 0.831-0.469 1.131s-0.707 0.469-1.131 0.469h-3.2c-0.424 0-0.831-0.169-1.131-0.469s-0.469-0.707-0.469-1.131v-6.4z"></path>
</symbol>
</defs>
</svg>
